<?xml version="1.0" encoding="UTF-8" standalone="no"?>
<svg
   xmlns:dc="http://purl.org/dc/elements/1.1/"
   xmlns:cc="http://creativecommons.org/ns#"
   xmlns:rdf="http://www.w3.org/1999/02/22-rdf-syntax-ns#"
   xmlns:svg="http://www.w3.org/2000/svg"
   xmlns="http://www.w3.org/2000/svg"
   viewBox="0 0 1000 1000"
   height="1000"
   width="1000"
   xml:space="preserve"
   id="svg2"
   version="1.1"><metadata
     id="metadata8"><rdf:RDF><cc:Work
         rdf:about=""><dc:format>image/svg+xml</dc:format><dc:type
           rdf:resource="http://purl.org/dc/dcmitype/StillImage" /></cc:Work></rdf:RDF></metadata><defs
     id="defs6"><clipPath
       id="clipPath18"
       clipPathUnits="userSpaceOnUse"><path
         id="path16"
         d="M 0,750 H 750 V 0 H 0 Z" /></clipPath></defs><g
     transform="matrix(1.3333333,0,0,-1.3333333,0,1000)"
     id="g10"><g
       id="g12"><g
         clip-path="url(#clipPath18)"
         id="g14"><g
           transform="translate(388.7803,641.0654)"
           id="g20"><path
             id="path22"
             style="fill:#123a50;fill-opacity:1;fill-rule:nonzero;stroke:none"
             d="m 0,0 c -38.962,-186.593 -77.454,-373.313 -116.031,-559.992 -4.496,-11.732 9.248,-22.007 19.823,-16.442 107.555,31.942 215.151,63.711 322.577,96.038 9.891,1.84 15.542,13.829 10.105,22.478 C 164.8,-302.624 91.241,-148.144 19.567,7.15 12.46,10.233 0.985,9.676 0,0 m -17.64,97.021 c 19.482,7.536 43.031,-2.312 51.122,-21.536 83.664,-177.859 166.941,-355.887 250.432,-533.832 10.19,-21.965 -2.783,-50.822 -26.375,-56.988 -127.592,-38.02 -255.184,-75.955 -382.776,-113.891 -15.242,-5.352 -33.011,-1.926 -44.486,9.677 -7.45,8.435 -12.973,18.368 -19.096,27.744 -39.647,61.699 -79.295,123.354 -118.771,185.138 -9.42,13.315 -9.891,31.727 -1.114,45.47 89.614,146.046 179.485,291.921 269.1,437.966 5.309,8.521 12.116,16.913 21.964,20.252" /></g></g></g></g></svg>